<svg xmlns="http://www.w3.org/2000/svg" width="64" height="64" viewBox="0 0 64 64" fill="none">
  <rect width="64" height="64" rx="12" fill="#0F172A"/>
  <path d="M18 42V22h10.5c4.5 0 7.5 2.7 7.5 6.3 0 2.7-1.6 4.8-4.1 5.7L38 42h-6.1l-4.4-7.4H24.5V42H18zm6.5-12.7h4.4c1.9 0 3.2-1 3.2-2.8s-1.3-2.8-3.2-2.8h-4.4v5.6z" fill="#F43F5E"/>
  <path d="M46 22c-6 0-10 3-10 7.5 0 8 12 5.5 12 9.5 0 1.3-1.5 2.3-4 2.3-2.2 0-4.8-.7-7-2l-1.4 4.3c2.4 1.4 5.7 2.4 8.9 2.4 6 0 9.5-2.8 9.5-7 0-8.2-12-5.7-12-9.6 0-1.1 1.2-2 3.5-2 1.9 0 4 .6 5.7 1.6l1.5-4.2C50.9 22.7 48.4 22 46 22z" fill="#38BDF8"/>
</svg>

